# xmcd
#
# Track frame offsets:
#	150
#	17346
#	28539
#	42857
#	56991
#	66464
#	81789
#	99693
#	114062
#	130065
#	150255
#	164654
#
# Disc length: 2480 seconds
# Revision: 0
# Processed by: cddbd v1.5.2PL0 Copyright (c) Steve Scherf et al.
# Submitted via: cdrLabel 7.1
#
DISCID=9109ae0c
DTITLE=Grayson Capps  - Wail and Ride
DYEAR=1900
DGENRE=
TTITLE0=Track  1 - Wail and Ride
TTITLE1=Track  2 - Jukebox
TTITLE2=Track  3 - New Orleans Waltz
TTITLE3=Track  4 - Daddy's Eyes
TTITLE4=Track  5 - Give it to Me
TTITLE5=Track  6 - Poison
TTITLE6=Track  7 - Mermaid 
TTITLE7=Track  8 - Broomy
TTITLE8=Track  9 - Junkman
TTITLE9=Track 10 - Ed Lee
TTITLE10=Track 11 - Cry Me One Tear
TTITLE11=Track 12 - Waterhole Branch
EXTD=
EXTT0=
EXTT1=
EXTT2=
EXTT3=
EXTT4=
EXTT5=
EXTT6=
EXTT7=
EXTT8=
EXTT9=
EXTT10=
EXTT11=
PLAYORDER=
